<?xml version="1.0" encoding="utf-8"?>
<!DOCTYPE svg PUBLIC "-//W3C//DTD SVG 1.0//EN" "http://www.w3.org/TR/2001/REC-SVG-20010904/DTD/svg10.dtd">
<svg version="1.0" xmlns="http://www.w3.org/2000/svg" width="1024px" height="1024px" viewBox="0 0 1024 1024" preserveAspectRatio="xMidYMid meet">
 <g fill="#000000" fill-rule="evenodd">
  <path d="M817.4 994 C807.4 991.1 802.4 986.5 799.9 977.8 L799.1 975 806 975 C812.5 975 813 975.1 814.3 977.8 C816.3 981.5 819.8 983 826.8 983 C836.6 983 841.7 977.8 841.9 967.7 L842 964 838.3 966.5 C824.3 976 805.6 968.9 799.3 951.7 C797 945.3 797.2 932.8 799.9 925.8 C806.3 908.9 827.2 902.8 839.7 914.2 L842 916.3 842 913.1 L842 910 848.5 910 L855 910 854.7 943.7 C854.5 976.3 854.4 977.6 852.2 981.6 C849.7 986.3 845.3 990.3 840.3 992.5 C836 994.4 822 995.3 817.4 994 M820.1 957.6 C807.4 951.4 808.7 924.8 821.9 920.9 C833 917.5 841.9 925.7 841.9 939.5 C842 953.7 831 962.9 820.1 957.6 "/>
  <path d="M214.2 970.1 C206 966 202.2 958.3 204.1 949.7 C206 941.2 213.7 936.4 229.5 933.9 C240.9 932.1 242 931.6 242 927.9 C242 926 241 923.9 239.5 922.4 C237.5 920.4 236.1 920 231.2 920 C224.8 920 221.4 921.6 219.9 925.6 C219.1 927.7 218.4 928 212.4 928 L205.8 928 206.5 924.7 C208.3 916.2 215 910.8 225.7 909.1 C236.7 907.3 246.2 909.9 251.3 916 C255.2 920.6 255.8 924.6 256.1 948.7 L256.5 971 250 970.7 C243.7 970.5 243.4 970.4 243.1 967.7 L242.8 964.9 239.6 967.3 C237.9 968.6 235 970.2 233.2 970.8 C228.1 972.6 218.5 972.2 214.2 970.1 M219.5 958.5 C216.3 955.5 216.3 951.8 219.2 948.5 C221 946.5 223.4 945.6 231.5 944 C237 942.9 241.8 942 242.3 942 C243.6 941.9 242.3 950.4 240.4 954 C238 958.7 233.8 961 227.5 961 C223 961 221.5 960.5 219.5 958.5 "/>
  <path d="M303.2 970.1 C296.3 966.7 293 961.3 293 953.8 C293 944.4 299.9 937.8 312.8 935.3 C332.9 931.3 331.5 931.9 331.3 928 C331 922.9 327.2 920 320.8 920 C314.8 920 310.2 922.1 309.4 925.5 C308.8 927.8 308.3 928 301.8 928 L294.9 928 295.5 925.2 C296.7 920.1 300.7 914.5 304.6 912.3 C316.7 905.5 336.3 908.3 342.1 917.6 C344.4 921.4 344.7 924.6 345.4 951.2 L345.9 971 339.4 971 L333 971 333 968 C333 966.3 332.7 965 332.5 965 C332.2 965 330 966.3 327.5 968 C323.7 970.5 321.7 971 315 971.5 C308.4 971.9 306.3 971.6 303.2 970.1 M309.5 958.9 C307.7 957.4 307 955.8 307 953.6 C307 948.6 310.3 946.2 319.3 944.4 C323.6 943.6 328.1 942.7 329.5 942.4 C331.8 941.8 331.9 942 331.9 945.6 C331.9 950.6 329.3 955.8 325.2 958.7 C320.8 961.7 313 961.8 309.5 958.9 "/>
  <path d="M366.8 970.7 C361.1 968.3 355.8 962.9 352.6 956 C349.7 950.1 349.5 948.5 349.5 940 C349.5 929.8 351.2 924.2 356.4 917.5 C364 907.5 381.9 905.5 391.2 913.7 C392.9 915.2 393 914.5 393 901.1 L393 887 399.4 887 L405.8 887 406.4 892.2 C406.7 895.1 406.9 913.9 406.7 934 L406.5 970.5 400.2 970.7 L394 971 394 968 L394 965 389.5 968 C385.8 970.4 383.6 971 377.5 971.5 C372.5 971.8 368.9 971.5 366.8 970.7 M374.3 960 C370.3 958.6 366.2 954.1 364.3 949.3 C361.9 943 362.8 932.2 366.2 927.1 C370.8 920.2 378.9 918.1 385 922.2 C391.9 926.9 394.8 934.8 393.4 945.1 C392 955.5 382.5 962.9 374.3 960 "/>
  <path d="M444.1 970.6 C436.4 967.9 431.1 962 429.5 954.2 L428.8 951 435.4 951 C441.3 951 442.1 951.2 442.9 953.2 C444.5 957.4 448.6 960.2 453.8 960.7 C462.9 961.6 468.9 957.9 467.5 952.4 C466.8 949.4 463.2 947.5 454.4 945.5 C442.7 942.8 438.4 941 434.9 937.4 C431.7 934.1 431.5 933.4 431.5 927.1 C431.5 918.6 433.9 914.8 441.8 911.1 C453.1 906 470.2 908.8 475.6 916.6 C477.5 919.3 480 925.2 480 927.1 C480 927.6 477.1 928 473.5 928 C467.3 928 467.1 927.9 465.1 924.5 C463.6 922 462 920.8 459.1 920 C451.9 918 443.9 921.2 444 925.9 C444 929.8 446.7 931.2 459.7 934.2 C471.6 937 478 940.5 480.3 945.3 C484.8 954.7 479.1 966.6 468.3 970.4 C462.9 972.3 449.4 972.4 444.1 970.6 "/>
  <path d="M503.7 971.1 C495.8 968.1 489.3 962.2 486 955 C483.2 948.6 483.1 934.2 486 926.6 C490.1 915.6 500.8 908.5 513.5 908.6 C529.8 908.6 540.2 918.7 541.7 936 L542.2 943 520.8 943 C509.1 943 498.9 943.3 498.2 943.8 C496.4 944.9 498.5 951.3 502 955.3 C508.3 962.5 518.9 962.3 525.2 954.9 C528.5 951.1 528.8 951 534.9 951 L541.2 951 540.5 953.7 C538.8 960.8 531.4 968.1 523.5 970.5 C518.5 972.1 507.2 972.4 503.7 971.1 M498.6 930.7 C500.4 924 506 920 513.6 920 C517.8 920 519.4 920.5 522 922.7 C524.7 924.9 528 930.3 528 932.4 C528 932.7 521.2 933 513 933 L498 933 498.6 930.7 "/>
  <path d="M650.8 970.9 C644.8 968.8 640.1 964.8 637.5 959.6 C633.4 951.5 633.7 951 642 951 C647.5 951 649 951.3 649 952.4 C649 953.3 650.2 955.3 651.8 957.1 C654 959.6 655.5 960.3 659.7 960.7 C662.5 961 666 960.9 667.4 960.5 C673.2 959.1 675.9 953 672.2 949.7 C671.2 948.8 665 946.7 658.4 945 C651.8 943.3 645.3 941.1 644 940.1 C636.4 934.5 634.6 924.5 639.8 917.3 C644.7 910.5 657 906.8 667.3 908.9 C676.8 910.9 683.4 916.8 685.3 925.2 L686 928 679.5 928 C673.3 928 672.9 927.8 671.5 925 C669.4 921 666.6 919.7 660.5 919.7 C654.6 919.7 651.4 921.1 650.5 923.9 C648.8 929.1 652.1 931.3 666.5 934.4 C676 936.5 680.8 938.8 684.3 942.9 C691 950.9 687.6 964.2 677.5 968.8 C672.1 971.3 655.8 972.6 650.8 970.9 "/>
  <path d="M706.5 971.1 C701.7 970 698.3 967.5 696.2 963.7 C694.7 960.9 694.5 957.7 694.5 940.5 L694.5 920.5 690.5 920 C686.5 919.5 686.4 919.4 686.1 914.8 L685.8 910.1 690.1 909.8 L694.5 909.5 694.7 900.7 L695 892 701.5 892 L707.9 892 708.2 900.7 L708.5 909.5 714.2 909.7 L720 910 720 915.5 L720 921 713.9 921 L707.8 921 708.1 939 C708.5 959.4 708.7 960 716.1 960 L720 960 720 965.3 C720 970.5 719.8 970.7 717 971.3 C712.9 972.2 710.6 972.1 706.5 971.1 "/>
  <path d="M874 970.6 C867.8 968.4 863.9 965 861.3 959.5 C857.5 951.4 857.8 951 866 951 C871.5 951 873 951.3 873 952.4 C873 953.3 874.2 955.3 875.7 957 C881.8 963.8 898 961.4 898 953.6 C898 949.9 895 948.1 884.2 945.5 C871 942.2 869.1 941.4 865.2 937.7 C858.6 931.3 858.9 921.6 865.9 914.9 C876.4 904.9 899.9 906.9 906.3 918.3 C907.6 920.6 909 923.7 909.4 925.2 L910 928 903.1 928 C896.6 928 896.1 927.8 895.6 925.6 C894.6 921.8 890.3 919.6 883.7 919.6 C877.3 919.6 874 921.6 874 925.5 C874 929.1 878.2 931.6 888.2 934 C903.9 937.6 909.3 941.1 911 948.6 C913.2 958.2 906.9 967.8 896.3 970.9 C891.5 972.4 878.6 972.2 874 970.6 "/>
  <path d="M143 928.8 L143 886.7 164.7 887.2 C188.2 887.7 190.5 888.1 196.8 893.5 C201.9 897.7 203.9 903.1 203.9 912 C203.9 918.2 203.5 920.5 201.3 924.8 C196.2 935 189.2 938 169.8 938 L157 938 157 954.5 L157 971 150 971 L143 971 143 928.8 M157 912.9 L157 899.8 170.5 900.1 C184 900.4 184.2 900.5 186.5 903.2 C189.7 906.9 190.6 912.4 188.8 917.3 C186.6 923.7 183.9 924.9 169.5 925.5 L157 926 157 912.9 "/>
  <path d="M261.5 970.3 C261.2 969.9 261 956.2 261 939.7 L261 909.9 267.7 910.2 L274.5 910.5 274.1 913.7 C273.7 917.6 274.5 917.8 277 914.6 C279.6 911.3 285 909 289.9 909 L294 909 294 914.8 L294 920.7 288.8 921.4 C282.6 922.2 277.7 926.4 276.1 932.5 C275.5 934.7 275 944.2 275 953.7 L275 971 268.5 971 C264.9 971 261.7 970.7 261.5 970.3 "/>
  <path d="M412 940.5 L412 910 418.5 910 L425 910 425 940.5 L425 971 418.5 971 L412 971 412 940.5 "/>
  <path d="M567 929.6 L567 888.2 571.6 887.6 C574.1 887.2 577.3 887 578.6 887 L581 887 581 922.5 L581 958 599.5 958 L618 958 618 934 L618 910 624.7 910 L631.5 910 631.3 931.2 C631.2 942.9 631.1 956.6 631 961.7 L631 971 599 971 L567 971 567 929.6 "/>
  <path d="M723 942 C723 926.1 723.2 912.4 723.6 911.5 C724 910.3 725.6 910 730.6 910 L737 910 737 940.5 L737 971 730 971 L723 971 723 942 "/>
  <path d="M742.5 965.7 C742.3 962.8 742.4 949.1 742.7 935.2 L743.3 910 749.6 910 L756 910 756 913.1 L756 916.2 759.4 913.1 C766.5 906.9 779 906.7 786.8 912.7 C793.5 917.8 794.4 921.6 794.8 947.7 L795.1 971 788 971 L781 971 780.9 950.2 C780.9 927.5 780.2 923.9 775 921.2 C771.7 919.5 765.8 920.2 762.1 922.8 C756.8 926.6 756 930.8 756 952 L756 971 749.5 971 L743 971 742.5 965.7 "/>
  <path d="M413 900 C410 897 410.3 891.5 413.5 888.3 C418.5 883.4 427 887.2 427 894.4 C427 900.9 417.6 904.6 413 900 "/>
  <path d="M619.6 901 C618.8 900.4 617.7 898.7 617 897 C614.7 891.5 620.4 884.8 626.2 886.3 C632.4 887.9 634.8 894.3 631 899.3 C629.4 901.4 628.1 902 625 902 C622.8 902 620.3 901.5 619.6 901 "/>
  <path d="M725 899.9 C721.8 896.7 721.4 893.2 723.7 890.1 C727.7 884.8 733.9 884.9 737.5 890.4 C742.3 897.7 731.1 906.2 725 899.9 "/>
  <path d="M325.2 613.7 L133.5 421.5 324.7 421 L515.9 420.5 382.7 287.3 C309.4 214.1 223.6 128.3 192 96.6 L134.6 39 518.3 38.7 L902 38.5 902 422.4 L902 806.4 710.7 615.2 C605.5 510 519.1 423.9 518.7 424 C518.3 424 517.7 509.9 517.5 615 L517 806 325.2 613.7 M517.9 230.2 L517.9 39.5 708.7 230 C813.6 334.7 899.5 420.6 899.7 420.7 C899.8 420.8 814 421 709 421 L518 421 517.9 230.2 "/>
 </g>
 <g fill="#ffffff" fill-rule="evenodd">
  <path d="M0 512 L0 0 512 0 L1024 0 1024 512 L1024 1024 512 1024 L0 1024 0 512 M817.4 994 C807.4 991.1 802.4 986.5 799.9 977.8 L799.1 975 806 975 C812.5 975 813 975.1 814.3 977.8 C816.3 981.5 819.8 983 826.8 983 C836.6 983 841.7 977.8 841.9 967.7 L842 964 838.3 966.5 C824.3 976 805.6 968.9 799.3 951.7 C797 945.3 797.2 932.8 799.9 925.8 C806.3 908.9 827.2 902.8 839.7 914.2 L842 916.3 842 913.1 L842 910 848.5 910 L855 910 854.7 943.7 C854.5 976.3 854.4 977.6 852.2 981.6 C849.7 986.3 845.3 990.3 840.3 992.5 C836 994.4 822 995.3 817.4 994 M820.1 957.6 C807.4 951.4 808.7 924.8 821.9 920.9 C833 917.5 841.9 925.7 841.9 939.5 C842 953.7 831 962.9 820.1 957.6 M214.2 970.1 C206 966 202.2 958.3 204.1 949.7 C206 941.2 213.7 936.4 229.5 933.9 C240.9 932.1 242 931.6 242 927.9 C242 926 241 923.9 239.5 922.4 C237.5 920.4 236.1 920 231.2 920 C224.8 920 221.4 921.6 219.9 925.6 C219.1 927.7 218.4 928 212.4 928 L205.8 928 206.5 924.7 C208.3 916.2 215 910.8 225.7 909.1 C236.7 907.3 246.2 909.9 251.3 916 C255.2 920.6 255.8 924.6 256.1 948.7 L256.5 971 250 970.7 C243.7 970.5 243.4 970.4 243.1 967.7 L242.8 964.9 239.6 967.3 C237.9 968.6 235 970.2 233.2 970.8 C228.1 972.6 218.5 972.2 214.2 970.1 M219.5 958.5 C216.3 955.5 216.3 951.8 219.2 948.5 C221 946.5 223.4 945.6 231.5 944 C237 942.9 241.8 942 242.3 942 C243.6 941.9 242.3 950.4 240.4 954 C238 958.7 233.8 961 227.5 961 C223 961 221.5 960.5 219.5 958.5 M303.2 970.1 C296.3 966.7 293 961.3 293 953.8 C293 944.4 299.9 937.8 312.8 935.3 C332.9 931.3 331.5 931.9 331.3 928 C331 922.9 327.2 920 320.8 920 C314.8 920 310.2 922.1 309.4 925.5 C308.8 927.8 308.3 928 301.8 928 L294.9 928 295.5 925.2 C296.7 920.1 300.7 914.5 304.6 912.3 C316.7 905.5 336.3 908.3 342.1 917.6 C344.4 921.4 344.7 924.6 345.4 951.2 L345.9 971 339.4 971 L333 971 333 968 C333 966.3 332.7 965 332.5 965 C332.2 965 330 966.3 327.5 968 C323.7 970.5 321.7 971 315 971.5 C308.4 971.9 306.3 971.6 303.2 970.1 M309.5 958.9 C307.7 957.4 307 955.8 307 953.6 C307 948.6 310.3 946.2 319.3 944.4 C323.6 943.6 328.1 942.7 329.5 942.4 C331.8 941.8 331.9 942 331.9 945.6 C331.9 950.6 329.3 955.8 325.2 958.7 C320.8 961.7 313 961.8 309.5 958.9 M366.8 970.7 C361.1 968.3 355.8 962.9 352.6 956 C349.7 950.1 349.5 948.5 349.5 940 C349.5 929.8 351.2 924.2 356.4 917.5 C364 907.5 381.9 905.5 391.2 913.7 C392.9 915.2 393 914.5 393 901.1 L393 887 399.4 887 L405.8 887 406.4 892.2 C406.7 895.1 406.9 913.9 406.7 934 L406.5 970.5 400.2 970.7 L394 971 394 968 L394 965 389.5 968 C385.8 970.4 383.6 971 377.5 971.5 C372.5 971.8 368.9 971.5 366.8 970.7 M374.3 960 C370.3 958.6 366.2 954.1 364.3 949.3 C361.9 943 362.8 932.2 366.2 927.1 C370.8 920.2 378.9 918.1 385 922.2 C391.9 926.9 394.8 934.8 393.4 945.1 C392 955.5 382.5 962.9 374.3 960 M444.1 970.6 C436.4 967.9 431.1 962 429.5 954.2 L428.8 951 435.4 951 C441.3 951 442.1 951.2 442.9 953.2 C444.5 957.4 448.6 960.2 453.8 960.7 C462.9 961.6 468.9 957.9 467.5 952.4 C466.8 949.4 463.2 947.5 454.4 945.5 C442.7 942.8 438.4 941 434.9 937.4 C431.7 934.1 431.5 933.4 431.5 927.1 C431.5 918.6 433.9 914.8 441.8 911.1 C453.1 906 470.2 908.8 475.6 916.6 C477.5 919.3 480 925.2 480 927.1 C480 927.6 477.1 928 473.5 928 C467.3 928 467.1 927.9 465.1 924.5 C463.6 922 462 920.8 459.1 920 C451.9 918 443.9 921.2 444 925.9 C444 929.8 446.7 931.2 459.7 934.2 C471.6 937 478 940.5 480.3 945.3 C484.8 954.7 479.1 966.6 468.3 970.4 C462.9 972.3 449.4 972.4 444.1 970.6 M503.7 971.1 C495.8 968.1 489.3 962.2 486 955 C483.2 948.6 483.1 934.2 486 926.6 C490.1 915.6 500.8 908.5 513.5 908.6 C529.8 908.6 540.2 918.7 541.7 936 L542.2 943 520.8 943 C509.1 943 498.9 943.3 498.2 943.8 C496.4 944.9 498.5 951.3 502 955.3 C508.3 962.5 518.9 962.3 525.2 954.9 C528.5 951.1 528.8 951 534.9 951 L541.2 951 540.5 953.7 C538.8 960.8 531.4 968.1 523.5 970.5 C518.5 972.1 507.2 972.4 503.7 971.1 M498.6 930.7 C500.4 924 506 920 513.6 920 C517.8 920 519.4 920.5 522 922.7 C524.7 924.9 528 930.3 528 932.4 C528 932.7 521.2 933 513 933 L498 933 498.6 930.7 M650.8 970.9 C644.8 968.8 640.1 964.8 637.5 959.6 C633.4 951.5 633.7 951 642 951 C647.5 951 649 951.3 649 952.4 C649 953.3 650.2 955.3 651.8 957.1 C654 959.6 655.5 960.3 659.7 960.7 C662.5 961 666 960.9 667.4 960.5 C673.2 959.1 675.9 953 672.2 949.7 C671.2 948.8 665 946.7 658.4 945 C651.8 943.3 645.3 941.1 644 940.1 C636.4 934.5 634.6 924.5 639.8 917.3 C644.7 910.5 657 906.8 667.3 908.9 C676.8 910.9 683.4 916.8 685.3 925.2 L686 928 679.5 928 C673.3 928 672.9 927.8 671.5 925 C669.4 921 666.6 919.7 660.5 919.7 C654.6 919.7 651.4 921.1 650.5 923.9 C648.8 929.1 652.1 931.3 666.5 934.4 C676 936.5 680.8 938.8 684.3 942.9 C691 950.9 687.6 964.2 677.5 968.8 C672.1 971.3 655.8 972.6 650.8 970.9 M706.5 971.1 C701.7 970 698.3 967.5 696.2 963.7 C694.7 960.9 694.5 957.7 694.5 940.5 L694.5 920.5 690.5 920 C686.5 919.5 686.4 919.4 686.1 914.8 L685.8 910.1 690.1 909.8 L694.5 909.5 694.7 900.7 L695 892 701.5 892 L707.9 892 708.2 900.7 L708.5 909.5 714.2 909.7 L720 910 720 915.5 L720 921 713.9 921 L707.8 921 708.1 939 C708.5 959.4 708.7 960 716.1 960 L720 960 720 965.3 C720 970.5 719.8 970.7 717 971.3 C712.9 972.2 710.6 972.1 706.5 971.1 M874 970.6 C867.8 968.4 863.9 965 861.3 959.5 C857.5 951.4 857.8 951 866 951 C871.5 951 873 951.3 873 952.4 C873 953.3 874.2 955.3 875.7 957 C881.8 963.8 898 961.4 898 953.6 C898 949.9 895 948.1 884.2 945.5 C871 942.2 869.1 941.4 865.2 937.7 C858.6 931.3 858.9 921.6 865.9 914.9 C876.4 904.9 899.9 906.9 906.3 918.3 C907.6 920.6 909 923.7 909.4 925.2 L910 928 903.1 928 C896.6 928 896.1 927.8 895.6 925.6 C894.6 921.8 890.3 919.6 883.7 919.6 C877.3 919.6 874 921.6 874 925.5 C874 929.1 878.2 931.6 888.2 934 C903.9 937.6 909.3 941.1 911 948.6 C913.2 958.2 906.9 967.8 896.3 970.9 C891.5 972.4 878.6 972.2 874 970.6 M143 928.8 L143 886.7 164.7 887.2 C188.2 887.7 190.5 888.1 196.8 893.5 C201.9 897.7 203.9 903.1 203.9 912 C203.9 918.2 203.5 920.5 201.3 924.8 C196.2 935 189.2 938 169.8 938 L157 938 157 954.5 L157 971 150 971 L143 971 143 928.8 M157 912.9 L157 899.8 170.5 900.1 C184 900.4 184.2 900.5 186.5 903.2 C189.7 906.9 190.6 912.4 188.8 917.3 C186.6 923.7 183.9 924.9 169.5 925.5 L157 926 157 912.9 M261.5 970.3 C261.2 969.9 261 956.2 261 939.7 L261 909.9 267.7 910.2 L274.5 910.5 274.1 913.7 C273.7 917.6 274.5 917.8 277 914.6 C279.6 911.3 285 909 289.9 909 L294 909 294 914.8 L294 920.7 288.8 921.4 C282.6 922.2 277.7 926.4 276.1 932.5 C275.5 934.7 275 944.2 275 953.7 L275 971 268.5 971 C264.9 971 261.7 970.7 261.5 970.3 M412 940.5 L412 910 418.5 910 L425 910 425 940.5 L425 971 418.5 971 L412 971 412 940.5 M567 929.6 L567 888.2 571.6 887.6 C574.1 887.2 577.3 887 578.6 887 L581 887 581 922.5 L581 958 599.5 958 L618 958 618 934 L618 910 624.7 910 L631.5 910 631.3 931.2 C631.2 942.9 631.1 956.6 631 961.7 L631 971 599 971 L567 971 567 929.6 M723 942 C723 926.1 723.2 912.4 723.6 911.5 C724 910.3 725.6 910 730.6 910 L737 910 737 940.5 L737 971 730 971 L723 971 723 942 M742.5 965.7 C742.3 962.8 742.4 949.1 742.7 935.2 L743.3 910 749.6 910 L756 910 756 913.1 L756 916.2 759.4 913.1 C766.5 906.9 779 906.7 786.8 912.7 C793.5 917.8 794.4 921.6 794.8 947.7 L795.1 971 788 971 L781 971 780.9 950.2 C780.9 927.5 780.2 923.9 775 921.2 C771.7 919.5 765.8 920.2 762.1 922.8 C756.8 926.6 756 930.8 756 952 L756 971 749.5 971 L743 971 742.5 965.7 M413 900 C410 897 410.3 891.5 413.5 888.3 C418.5 883.4 427 887.2 427 894.4 C427 900.9 417.6 904.6 413 900 M619.6 901 C618.8 900.4 617.7 898.7 617 897 C614.7 891.5 620.4 884.8 626.2 886.3 C632.4 887.9 634.8 894.3 631 899.3 C629.4 901.4 628.1 902 625 902 C622.8 902 620.3 901.5 619.6 901 M725 899.9 C721.8 896.7 721.4 893.2 723.7 890.1 C727.7 884.8 733.9 884.9 737.5 890.4 C742.3 897.7 731.1 906.2 725 899.9 M325.2 613.7 L133.5 421.5 324.7 421 L515.9 420.5 382.7 287.3 C309.4 214.1 223.6 128.3 192 96.6 L134.6 39 518.3 38.7 L902 38.5 902 422.4 L902 806.4 710.7 615.2 C605.5 510 519.1 423.9 518.7 424 C518.3 424 517.7 509.9 517.5 615 L517 806 325.2 613.7 M517.9 230.2 L517.9 39.5 708.7 230 C813.6 334.7 899.5 420.6 899.7 420.7 C899.8 420.8 814 421 709 421 L518 421 517.9 230.2 "/>
 </g>
</svg>