<?xml version="1.0" encoding="utf-8"?>
<!DOCTYPE svg PUBLIC "-//W3C//DTD SVG 1.0//EN" "http://www.w3.org/TR/2001/REC-SVG-20010904/DTD/svg10.dtd">
<svg version="1.0" xmlns="http://www.w3.org/2000/svg" width="850px" height="200px" viewBox="0 3 850 200" preserveAspectRatio="xMidYMid meet">
 <g fill="#000000" fill-rule="evenodd">
  <path d="M35.78 131.61 C19.84 115.22 6.40 101.38 5.96 100.82 L5.15 99.81 34.85 99.81 L64.51 99.81 61.13 96.27 C55.70 90.67 15.17 48.98 9.86 43.55 L5.07 38.60 64.92 38.60 L124.76 38.64 124.72 100.09 L124.68 161.59 115.43 152.13 C110.36 146.90 97.03 133.17 85.89 121.62 L65.60 100.62 65.20 131 L64.80 161.39 35.78 131.61 M65.20 69.63 C65.20 53 65.28 39.44 65.40 39.44 C65.48 39.44 68.78 42.74 72.72 46.77 C76.63 50.79 84.03 58.36 89.11 63.59 C114.10 89.06 117.92 93.01 121.02 96.27 L124.36 99.81 94.78 99.81 L65.20 99.81 65.20 69.63 "/>
  <path d="M761.38 155.95 C753.45 154.06 747.17 148.07 746.29 141.47 L746.04 139.65 751.12 139.65 L756.19 139.65 756.83 141.14 C757.59 142.99 759.57 145.09 761.46 146.05 C763.59 147.18 767.58 147.82 770.51 147.54 C778.44 146.82 782.27 141.43 781.90 131.44 L781.78 128.30 780.58 129.91 C778.88 132.21 776.07 134.26 773.25 135.27 C769.99 136.43 763.91 136.43 760.25 135.27 C749.71 131.93 743.99 121.54 744.64 106.93 C744.92 101.14 745.56 98.36 747.73 93.97 C750.59 88.14 755.10 84.11 760.73 82.42 C762.99 81.74 764.28 81.62 767.78 81.74 C771.64 81.90 772.41 82.02 774.82 83.19 C776.67 84.03 778.28 85.20 779.77 86.77 L781.98 89.11 781.98 85.80 L781.98 82.50 787.22 82.50 L792.49 82.50 792.33 110.56 C792.17 141.47 792.25 140.46 789.59 145.93 C787.18 150.88 782.19 154.51 775.83 155.95 C772.32 156.72 764.60 156.72 761.38 155.95 M766.05 126.78 C759.33 125.41 755.22 118.61 755.26 108.87 C755.30 100.62 758.04 94.90 763.23 92.24 C766.01 90.80 770.31 90.76 773.41 92.12 C778.84 94.54 781.98 100.74 781.94 109.19 C781.94 115.10 779.89 120.90 776.79 123.60 C773.85 126.21 769.47 127.50 766.05 126.78 "/>
  <path d="M256.85 136.11 C249.65 133.42 245.90 127.74 246.35 120.01 C246.71 114.18 249.65 109.87 255.20 107.22 C258.18 105.81 261.08 105.08 271.82 102.99 C275.36 102.31 278.38 101.66 278.58 101.54 C279.11 101.22 278.62 97.64 277.82 95.79 C277.05 93.93 275.85 92.69 273.88 91.60 C271.50 90.35 265.71 90.35 263.33 91.64 C261.16 92.77 259.27 95.10 258.66 97.28 L258.18 99.01 253.03 99.01 C250.21 99.01 247.92 98.88 247.92 98.72 C247.92 98.60 248.20 97.40 248.52 96.03 C250.37 88.98 255.64 83.79 262.81 82.06 C264.02 81.74 266.71 81.54 268.84 81.54 C279.03 81.54 285.75 86.09 288.40 94.78 C289.09 96.95 289.17 98.88 289.17 116.51 L289.17 135.83 284.26 135.91 C278.62 136.07 278.91 136.27 278.91 131.65 L278.91 129.11 277.58 130.84 C275.85 133.09 272.99 134.99 269.81 135.99 C266.35 137.08 259.63 137.12 256.85 136.11 M261.28 127.50 C257.41 125.93 255.72 121.54 257.54 117.92 C259.11 114.90 261.56 113.78 271.22 111.64 C274.64 110.88 277.78 110.15 278.22 109.99 C278.99 109.75 278.99 109.91 278.75 112.93 C278.06 122.15 272.67 127.98 264.82 127.98 C263.49 127.98 261.88 127.74 261.28 127.50 "/>
  <path d="M331.11 135.91 C324.38 133.50 320.76 128.35 320.76 121.26 C320.76 113.82 324.95 108.54 332.92 106.01 C334.65 105.49 339.11 104.48 342.82 103.84 C351.15 102.31 353.08 101.78 353.28 100.90 C353.52 99.45 352.44 95.75 351.27 94.14 C348.93 90.92 343.70 89.63 339.15 91.16 C336.82 91.96 333.88 95.02 333.20 97.32 L332.68 99.01 327.68 99.01 L322.65 99.01 322.90 97.07 C323.34 94.02 325.67 89.59 328.17 87.09 C334.33 80.94 346.12 79.61 354.61 84.15 C358.92 86.45 361.53 90.15 363.02 96.03 C363.75 99.01 363.83 100.37 363.71 117.52 L363.62 135.83 358.59 135.83 L353.56 135.83 353.64 132.49 C353.72 130.68 353.68 129.19 353.64 129.19 C353.56 129.19 352.23 130.40 350.71 131.93 C346.96 135.59 344.99 136.35 338.47 136.64 C334.16 136.80 333.36 136.72 331.11 135.91 M335.33 127.42 C334.73 127.10 333.72 126.33 333.16 125.69 C329.33 121.62 331.39 115.91 337.46 113.86 C340.08 112.97 353.36 109.95 353.48 110.23 C353.56 110.36 353.48 111.80 353.32 113.49 C352.64 120.22 349.22 125.33 343.90 127.38 C342.05 128.14 336.78 128.14 335.33 127.42 "/>
  <path d="M383.83 136.19 C378.64 134.70 374.65 131.65 371.51 126.78 C368.01 121.42 366.84 116.15 367.13 107.26 C367.29 102.02 367.45 100.78 368.41 98 C370.27 92.45 373.04 88.50 377.19 85.44 C384.67 79.97 395.34 80.25 401.38 86.17 C402.74 87.46 403.87 88.54 403.95 88.54 C404.03 88.54 404.07 82.99 404.03 76.23 C404.03 69.51 404.11 63.79 404.27 63.55 C404.55 63.11 413.57 63.03 413.85 63.47 C413.93 63.63 414.09 79.97 414.17 99.81 L414.33 135.83 409.30 135.83 L404.27 135.83 404.15 132.69 L404.03 129.55 401.86 131.81 C398.64 135.11 395.58 136.35 390.19 136.64 C387.05 136.76 385.40 136.64 383.83 136.19 M387.85 127.06 C381.33 125.09 377.79 118.73 377.75 108.87 C377.75 102.02 379.08 97.96 382.54 94.42 C384.83 92.08 387.17 91.16 390.79 91.16 C396.22 91.16 399.73 93.65 402.42 99.41 C405.12 105.16 404.92 114.70 401.98 120.42 C399.36 125.61 392.96 128.59 387.85 127.06 "/>
  <path d="M449.71 136.23 C441.54 134.02 435.95 127.98 434.46 119.81 L434.18 118.28 439.29 118.40 L444.40 118.53 445.20 120.70 C446.33 123.72 449.15 126.49 451.96 127.34 C454.42 128.06 459.09 128.14 461.34 127.54 C464.72 126.57 467.26 122.87 466.61 119.77 C465.93 116.59 463.56 114.98 457.20 113.49 C455.06 113.01 451.80 112.25 449.95 111.80 C441.58 109.79 437.36 105.97 436.27 99.45 C434.90 90.76 440.70 83.63 450.64 81.86 C454.58 81.18 456.19 81.18 460.18 81.86 C468.18 83.31 473.54 88.10 475.55 95.54 C476.52 99.21 476.76 99.01 471.20 98.88 L466.29 98.80 465.77 97.15 C464 91.92 457.48 88.94 451.44 90.67 C446.65 92.08 444.68 97.36 447.82 100.29 C449.63 101.94 451.12 102.51 457.88 104 C469.87 106.65 473.30 108.46 475.99 113.62 C477 115.51 477.12 116.07 477.12 120.34 C477.12 125.77 476.47 127.50 473.42 130.80 C471.24 133.13 469.19 134.46 465.89 135.59 C462.75 136.72 452.97 137.08 449.71 136.23 "/>
  <path d="M497.77 136.19 C489.96 133.90 484 128.26 481.59 120.82 C480.18 116.51 479.73 113.62 479.73 108.95 C479.73 103.59 480.58 99.53 482.75 95.02 C486.90 86.29 494.71 81.50 504.49 81.54 C511.25 81.58 516.32 83.67 521.03 88.30 C525.74 92.97 527.91 98.44 528.31 106.73 L528.51 111.48 509.52 111.48 L490.52 111.48 490.80 113.53 C491.16 116.11 492.29 119.53 493.42 121.34 C494.75 123.52 498.09 126.25 500.26 126.98 C503.20 127.94 507.87 127.66 510.48 126.37 C513.02 125.13 515.63 122.47 516.60 120.13 L517.37 118.32 522.48 118.32 C528.39 118.28 528.23 118.16 526.74 122.23 C524.37 128.55 519.38 133.50 513.18 135.59 C509.76 136.72 500.74 137.08 497.77 136.19 M491 102.10 C491 100.86 493.02 96.67 494.42 95.02 C496.92 92.04 501.75 90.23 505.73 90.71 C508.47 91.08 512.29 92.97 513.90 94.78 C515.47 96.59 517 99.61 517.32 101.54 L517.57 103.03 504.29 103.03 L491 103.03 491 102.10 "/>
  <path d="M622.97 136.03 C617.46 134.50 613.07 131.12 610.62 126.49 C609.33 124.08 607.96 119.29 608.36 118.65 C608.44 118.44 610.70 118.32 613.31 118.32 L618.10 118.32 618.79 120.42 C619.79 123.48 622.93 126.49 626.03 127.38 C629.17 128.30 634.20 128.02 636.53 126.82 C641.77 124.16 641.77 117.60 636.57 115.18 C635.65 114.74 631.62 113.62 627.64 112.73 C619.47 110.84 616.21 109.51 613.71 107.01 C608.88 102.19 608.52 94.02 612.83 88.34 C617.58 82.10 627.68 79.77 637.10 82.71 C643.98 84.88 648.21 89.87 649.78 97.68 L650.02 99.01 645.03 99.01 L640 99.01 639.75 97.88 C639.35 95.91 637.22 93.05 635.29 91.96 C632.75 90.43 628.97 89.83 626.15 90.47 C620.40 91.76 618.26 97.36 622.25 100.74 C623.94 102.19 623.90 102.19 634.80 104.84 C641.97 106.57 644.66 107.78 647.40 110.44 C650.30 113.29 651.26 116.07 651.10 120.94 C650.98 124.08 650.78 124.92 649.65 127.22 C647.44 131.69 642.93 134.99 637.22 136.23 C633.39 137.12 626.43 137 622.97 136.03 "/>
  <path d="M811.28 136.23 C804 134.50 798.48 129.23 796.63 122.27 C795.51 118.08 795.35 118.24 800.94 118.40 L805.81 118.53 806.37 120.38 C807.18 123.11 810 126.09 812.85 127.18 C815.83 128.26 821.91 128.18 824.36 126.98 C829.11 124.64 829.60 118.24 825.21 115.67 C823.60 114.70 821.99 114.26 811.77 111.88 C806.65 110.72 803.39 109.07 800.90 106.45 C798.28 103.67 797.48 101.06 797.76 96.19 C798 91.08 799.97 87.58 804.20 84.80 C812.29 79.41 826.05 80.61 832.41 87.29 C834.83 89.79 835.87 91.64 836.84 94.94 C838.09 99.13 838.25 99.01 832.65 99.01 C828.39 99.01 827.78 98.88 827.58 98.28 C825.93 93.01 821.95 90.11 816.35 90.15 C812.17 90.15 808.91 92.08 808.10 95.06 C807.34 97.92 808.51 100.33 811.28 101.78 C812.09 102.19 815.71 103.19 819.33 104 C822.91 104.80 826.82 105.81 827.99 106.21 C834.26 108.38 837.20 111.16 838.53 116.19 C840.94 125.45 835.23 134.02 825.17 136.23 C821.83 137 814.46 137 811.28 136.23 "/>
  <path d="M196.56 135.79 C196.04 135.59 196 131.28 196.08 99.45 L196.20 63.39 212.30 63.39 C226.22 63.39 228.72 63.51 231.01 64.11 C238.86 66.21 243.77 70.91 245.70 78.36 C246.39 81.06 246.47 86.57 245.86 89.95 C244.82 95.63 240.87 101.06 236 103.43 C231.38 105.73 230.13 105.93 218.21 106.13 L207.27 106.29 207.07 120.94 L206.87 135.63 202.04 135.83 C199.38 135.91 196.92 135.91 196.56 135.79 M207.43 95.67 C207.31 95.38 207.27 90.27 207.35 84.32 L207.47 73.45 213.95 73.33 C225.14 73.09 229.20 73.89 232.06 76.91 C233.99 78.96 234.72 80.77 234.92 83.91 C235.24 89.15 232.54 93.49 227.95 95.14 C225.54 95.99 207.75 96.43 207.43 95.67 "/>
  <path d="M295.41 135.79 C295.13 135.63 295 126.29 295 109.03 L295 82.50 300.04 82.50 L305.07 82.50 305.07 86.01 L305.07 89.55 305.95 88.34 C308.81 84.40 312.71 82.26 317.82 81.82 L321.16 81.58 321.16 86.61 L321.16 91.64 317.95 91.88 C316.17 92 314.12 92.37 313.36 92.69 C311.34 93.53 308.73 96.03 307.64 98.24 C305.51 102.47 305.27 104.40 305.15 120.62 L305.07 135.63 300.44 135.83 C297.86 135.91 295.61 135.91 295.41 135.79 "/>
  <path d="M420.53 135.67 C420.29 135.47 420.17 126.33 420.25 109.03 L420.37 82.71 425.48 82.59 L430.63 82.46 430.43 109.03 L430.23 135.63 425.60 135.83 C423.03 135.91 420.77 135.87 420.53 135.67 "/>
  <path d="M553.14 135.79 L551.74 135.55 551.86 99.45 L551.98 63.39 557.29 63.27 L562.64 63.15 562.64 94.34 L562.64 125.57 577.33 125.57 L592.02 125.57 592.02 130.52 C592.02 134.58 591.90 135.55 591.42 135.75 C590.65 136.07 555.08 136.07 553.14 135.79 "/>
  <path d="M594.24 135.75 C594.11 135.59 594.03 123.56 594.03 108.99 L594.03 82.50 599.27 82.50 L604.50 82.50 604.30 109.07 L604.10 135.63 599.27 135.83 C596.61 135.91 594.32 135.91 594.24 135.75 "/>
  <path d="M666.76 135.67 C663.46 134.42 660.96 132.01 659.76 128.83 C659.11 127.18 659.03 125 658.91 109.15 L658.75 91.36 654.85 91.24 L650.98 91.16 650.86 86.81 L650.74 82.50 654.77 82.50 L658.83 82.50 658.83 73.01 L658.83 63.55 663.94 63.67 L669.09 63.79 669.17 73.13 L669.29 82.50 674.33 82.50 L679.36 82.50 679.36 86.93 L679.36 91.36 674.33 91.36 L669.29 91.36 669.29 107.05 C669.29 121.87 669.33 122.87 670.06 124.32 C671.07 126.25 671.55 126.45 675.73 126.74 L679.15 126.98 679.24 130.80 C679.28 132.89 679.15 134.82 678.95 135.11 C678.43 135.71 668.13 136.19 666.76 135.67 "/>
  <path d="M683.38 135.79 L682.17 135.55 682.17 109.03 L682.17 82.50 687.41 82.50 L692.64 82.50 692.44 109.07 L692.23 135.63 688.41 135.83 C686.28 135.91 684.02 135.91 683.38 135.79 "/>
  <path d="M699.28 135.79 C698.71 135.59 698.67 132.25 698.67 109.03 L698.67 82.50 703.91 82.50 L709.14 82.50 709.14 85.72 L709.14 88.98 711.15 86.77 C718.76 78.44 734.33 80.25 738.76 89.95 C740.77 94.30 740.89 96.11 740.89 116.79 L740.93 136.03 736.95 136.03 C734.73 136.03 732.40 135.91 731.72 135.75 L730.47 135.51 730.35 116.35 C730.27 98.93 730.19 97.03 729.54 95.58 C727.97 92.12 725.40 90.51 721.49 90.55 C715.90 90.55 712.32 93.73 710.10 100.62 C709.50 102.51 709.34 105.16 709.06 119.21 L708.74 135.63 704.31 135.83 C701.85 135.91 699.60 135.91 699.28 135.79 "/>
  <path d="M597.29 75.30 C594.03 74.33 592.18 71.64 592.50 68.22 C592.71 65.56 593.99 63.71 596.33 62.66 C602.57 59.93 608.28 67.57 604.06 72.97 C602.61 74.78 599.35 75.90 597.29 75.30 "/>
  <path d="M421.42 74.09 C419.45 72.60 418.80 70.99 419 68.26 C419.33 64.51 421.78 62.22 425.40 62.22 C427.66 62.22 429.63 63.27 430.96 65.20 C431.72 66.37 431.88 66.97 431.76 69.02 C431.48 73.13 429.19 75.26 425 75.26 C423.39 75.26 422.67 74.98 421.42 74.09 "/>
  <path d="M684.23 74.50 C681.41 72.60 680.32 69.42 681.53 66.57 C682.41 64.43 683.26 63.59 685.31 62.66 C690.83 60.21 696.42 66.65 693.40 71.96 C692.15 74.13 690.95 74.82 688.01 75.06 C685.88 75.22 685.15 75.10 684.23 74.50 "/>
 </g>
 <g fill="#ffffff" fill-rule="evenodd">
  <path d="M0 103.03 L0 0 425 0 L850 0 850 103.03 L850 206.06 425 206.06 L0 206.06 0 103.03 M35.78 131.61 C19.84 115.22 6.40 101.38 5.96 100.82 L5.15 99.81 34.85 99.81 L64.51 99.81 61.13 96.27 C55.70 90.67 15.17 48.98 9.86 43.55 L5.07 38.60 64.92 38.60 L124.76 38.64 124.72 100.09 L124.68 161.59 115.43 152.13 C110.36 146.90 97.03 133.17 85.89 121.62 L65.60 100.62 65.20 131 L64.80 161.39 35.78 131.61 M65.20 69.63 C65.20 53 65.28 39.44 65.40 39.44 C65.48 39.44 68.78 42.74 72.72 46.77 C76.63 50.79 84.03 58.36 89.11 63.59 C114.10 89.06 117.92 93.01 121.02 96.27 L124.36 99.81 94.78 99.81 L65.20 99.81 65.20 69.63 M761.38 155.95 C753.45 154.06 747.17 148.07 746.29 141.47 L746.04 139.65 751.12 139.65 L756.19 139.65 756.83 141.14 C757.59 142.99 759.57 145.09 761.46 146.05 C763.59 147.18 767.58 147.82 770.51 147.54 C778.44 146.82 782.27 141.43 781.90 131.44 L781.78 128.30 780.58 129.91 C778.88 132.21 776.07 134.26 773.25 135.27 C769.99 136.43 763.91 136.43 760.25 135.27 C749.71 131.93 743.99 121.54 744.64 106.93 C744.92 101.14 745.56 98.36 747.73 93.97 C750.59 88.14 755.10 84.11 760.73 82.42 C762.99 81.74 764.28 81.62 767.78 81.74 C771.64 81.90 772.41 82.02 774.82 83.19 C776.67 84.03 778.28 85.20 779.77 86.77 L781.98 89.11 781.98 85.80 L781.98 82.50 787.22 82.50 L792.49 82.50 792.33 110.56 C792.17 141.47 792.25 140.46 789.59 145.93 C787.18 150.88 782.19 154.51 775.83 155.95 C772.32 156.72 764.60 156.72 761.38 155.95 M766.05 126.78 C759.33 125.41 755.22 118.61 755.26 108.87 C755.30 100.62 758.04 94.90 763.23 92.24 C766.01 90.80 770.31 90.76 773.41 92.12 C778.84 94.54 781.98 100.74 781.94 109.19 C781.94 115.10 779.89 120.90 776.79 123.60 C773.85 126.21 769.47 127.50 766.05 126.78 M256.85 136.11 C249.65 133.42 245.90 127.74 246.35 120.01 C246.71 114.18 249.65 109.87 255.20 107.22 C258.18 105.81 261.08 105.08 271.82 102.99 C275.36 102.31 278.38 101.66 278.58 101.54 C279.11 101.22 278.62 97.64 277.82 95.79 C277.05 93.93 275.85 92.69 273.88 91.60 C271.50 90.35 265.71 90.35 263.33 91.64 C261.16 92.77 259.27 95.10 258.66 97.28 L258.18 99.01 253.03 99.01 C250.21 99.01 247.92 98.88 247.92 98.72 C247.92 98.60 248.20 97.40 248.52 96.03 C250.37 88.98 255.64 83.79 262.81 82.06 C264.02 81.74 266.71 81.54 268.84 81.54 C279.03 81.54 285.75 86.09 288.40 94.78 C289.09 96.95 289.17 98.88 289.17 116.51 L289.17 135.83 284.26 135.91 C278.62 136.07 278.91 136.27 278.91 131.65 L278.91 129.11 277.58 130.84 C275.85 133.09 272.99 134.99 269.81 135.99 C266.35 137.08 259.63 137.12 256.85 136.11 M261.28 127.50 C257.41 125.93 255.72 121.54 257.54 117.92 C259.11 114.90 261.56 113.78 271.22 111.64 C274.64 110.88 277.78 110.15 278.22 109.99 C278.99 109.75 278.99 109.91 278.75 112.93 C278.06 122.15 272.67 127.98 264.82 127.98 C263.49 127.98 261.88 127.74 261.28 127.50 M331.11 135.91 C324.38 133.50 320.76 128.35 320.76 121.26 C320.76 113.82 324.95 108.54 332.92 106.01 C334.65 105.49 339.11 104.48 342.82 103.84 C351.15 102.31 353.08 101.78 353.28 100.90 C353.52 99.45 352.44 95.75 351.27 94.14 C348.93 90.92 343.70 89.63 339.15 91.16 C336.82 91.96 333.88 95.02 333.20 97.32 L332.68 99.01 327.68 99.01 L322.65 99.01 322.90 97.07 C323.34 94.02 325.67 89.59 328.17 87.09 C334.33 80.94 346.12 79.61 354.61 84.15 C358.92 86.45 361.53 90.15 363.02 96.03 C363.75 99.01 363.83 100.37 363.71 117.52 L363.62 135.83 358.59 135.83 L353.56 135.83 353.64 132.49 C353.72 130.68 353.68 129.19 353.64 129.19 C353.56 129.19 352.23 130.40 350.71 131.93 C346.96 135.59 344.99 136.35 338.47 136.64 C334.16 136.80 333.36 136.72 331.11 135.91 M335.33 127.42 C334.73 127.10 333.72 126.33 333.16 125.69 C329.33 121.62 331.39 115.91 337.46 113.86 C340.08 112.97 353.36 109.95 353.48 110.23 C353.56 110.36 353.48 111.80 353.32 113.49 C352.64 120.22 349.22 125.33 343.90 127.38 C342.05 128.14 336.78 128.14 335.33 127.42 M383.83 136.19 C378.64 134.70 374.65 131.65 371.51 126.78 C368.01 121.42 366.84 116.15 367.13 107.26 C367.29 102.02 367.45 100.78 368.41 98 C370.27 92.45 373.04 88.50 377.19 85.44 C384.67 79.97 395.34 80.25 401.38 86.17 C402.74 87.46 403.87 88.54 403.95 88.54 C404.03 88.54 404.07 82.99 404.03 76.23 C404.03 69.51 404.11 63.79 404.27 63.55 C404.55 63.11 413.57 63.03 413.85 63.47 C413.93 63.63 414.09 79.97 414.17 99.81 L414.33 135.83 409.30 135.83 L404.27 135.83 404.15 132.69 L404.03 129.55 401.86 131.81 C398.64 135.11 395.58 136.35 390.19 136.64 C387.05 136.76 385.40 136.64 383.83 136.19 M387.85 127.06 C381.33 125.09 377.79 118.73 377.75 108.87 C377.75 102.02 379.08 97.96 382.54 94.42 C384.83 92.08 387.17 91.16 390.79 91.16 C396.22 91.16 399.73 93.65 402.42 99.41 C405.12 105.16 404.92 114.70 401.98 120.42 C399.36 125.61 392.96 128.59 387.85 127.06 M449.71 136.23 C441.54 134.02 435.95 127.98 434.46 119.81 L434.18 118.28 439.29 118.40 L444.40 118.53 445.20 120.70 C446.33 123.72 449.15 126.49 451.96 127.34 C454.42 128.06 459.09 128.14 461.34 127.54 C464.72 126.57 467.26 122.87 466.61 119.77 C465.93 116.59 463.56 114.98 457.20 113.49 C455.06 113.01 451.80 112.25 449.95 111.80 C441.58 109.79 437.36 105.97 436.27 99.45 C434.90 90.76 440.70 83.63 450.64 81.86 C454.58 81.18 456.19 81.18 460.18 81.86 C468.18 83.31 473.54 88.10 475.55 95.54 C476.52 99.21 476.76 99.01 471.20 98.88 L466.29 98.80 465.77 97.15 C464 91.92 457.48 88.94 451.44 90.67 C446.65 92.08 444.68 97.36 447.82 100.29 C449.63 101.94 451.12 102.51 457.88 104 C469.87 106.65 473.30 108.46 475.99 113.62 C477 115.51 477.12 116.07 477.12 120.34 C477.12 125.77 476.47 127.50 473.42 130.80 C471.24 133.13 469.19 134.46 465.89 135.59 C462.75 136.72 452.97 137.08 449.71 136.23 M497.77 136.19 C489.96 133.90 484 128.26 481.59 120.82 C480.18 116.51 479.73 113.62 479.73 108.95 C479.73 103.59 480.58 99.53 482.75 95.02 C486.90 86.29 494.71 81.50 504.49 81.54 C511.25 81.58 516.32 83.67 521.03 88.30 C525.74 92.97 527.91 98.44 528.31 106.73 L528.51 111.48 509.52 111.48 L490.52 111.48 490.80 113.53 C491.16 116.11 492.29 119.53 493.42 121.34 C494.75 123.52 498.09 126.25 500.26 126.98 C503.20 127.94 507.87 127.66 510.48 126.37 C513.02 125.13 515.63 122.47 516.60 120.13 L517.37 118.32 522.48 118.32 C528.39 118.28 528.23 118.16 526.74 122.23 C524.37 128.55 519.38 133.50 513.18 135.59 C509.76 136.72 500.74 137.08 497.77 136.19 M491 102.10 C491 100.86 493.02 96.67 494.42 95.02 C496.92 92.04 501.75 90.23 505.73 90.71 C508.47 91.08 512.29 92.97 513.90 94.78 C515.47 96.59 517 99.61 517.32 101.54 L517.57 103.03 504.29 103.03 L491 103.03 491 102.10 M622.97 136.03 C617.46 134.50 613.07 131.12 610.62 126.49 C609.33 124.08 607.96 119.29 608.36 118.65 C608.44 118.44 610.70 118.32 613.31 118.32 L618.10 118.32 618.79 120.42 C619.79 123.48 622.93 126.49 626.03 127.38 C629.17 128.30 634.20 128.02 636.53 126.82 C641.77 124.16 641.77 117.60 636.57 115.18 C635.65 114.74 631.62 113.62 627.64 112.73 C619.47 110.84 616.21 109.51 613.71 107.01 C608.88 102.19 608.52 94.02 612.83 88.34 C617.58 82.10 627.68 79.77 637.10 82.71 C643.98 84.88 648.21 89.87 649.78 97.68 L650.02 99.01 645.03 99.01 L640 99.01 639.75 97.88 C639.35 95.91 637.22 93.05 635.29 91.96 C632.75 90.43 628.97 89.83 626.15 90.47 C620.40 91.76 618.26 97.36 622.25 100.74 C623.94 102.19 623.90 102.19 634.80 104.84 C641.97 106.57 644.66 107.78 647.40 110.44 C650.30 113.29 651.26 116.07 651.10 120.94 C650.98 124.08 650.78 124.92 649.65 127.22 C647.44 131.69 642.93 134.99 637.22 136.23 C633.39 137.12 626.43 137 622.97 136.03 M811.28 136.23 C804 134.50 798.48 129.23 796.63 122.27 C795.51 118.08 795.35 118.24 800.94 118.40 L805.81 118.53 806.37 120.38 C807.18 123.11 810 126.09 812.85 127.18 C815.83 128.26 821.91 128.18 824.36 126.98 C829.11 124.64 829.60 118.24 825.21 115.67 C823.60 114.70 821.99 114.26 811.77 111.88 C806.65 110.72 803.39 109.07 800.90 106.45 C798.28 103.67 797.48 101.06 797.76 96.19 C798 91.08 799.97 87.58 804.20 84.80 C812.29 79.41 826.05 80.61 832.41 87.29 C834.83 89.79 835.87 91.64 836.84 94.94 C838.09 99.13 838.25 99.01 832.65 99.01 C828.39 99.01 827.78 98.88 827.58 98.28 C825.93 93.01 821.95 90.11 816.35 90.15 C812.17 90.15 808.91 92.08 808.10 95.06 C807.34 97.92 808.51 100.33 811.28 101.78 C812.09 102.19 815.71 103.19 819.33 104 C822.91 104.80 826.82 105.81 827.99 106.21 C834.26 108.38 837.20 111.16 838.53 116.19 C840.94 125.45 835.23 134.02 825.17 136.23 C821.83 137 814.46 137 811.28 136.23 M196.56 135.79 C196.04 135.59 196 131.28 196.08 99.45 L196.20 63.39 212.30 63.39 C226.22 63.39 228.72 63.51 231.01 64.11 C238.86 66.21 243.77 70.91 245.70 78.36 C246.39 81.06 246.47 86.57 245.86 89.95 C244.82 95.63 240.87 101.06 236 103.43 C231.38 105.73 230.13 105.93 218.21 106.13 L207.27 106.29 207.07 120.94 L206.87 135.63 202.04 135.83 C199.38 135.91 196.92 135.91 196.56 135.79 M207.43 95.67 C207.31 95.38 207.27 90.27 207.35 84.32 L207.47 73.45 213.95 73.33 C225.14 73.09 229.20 73.89 232.06 76.91 C233.99 78.96 234.72 80.77 234.92 83.91 C235.24 89.15 232.54 93.49 227.95 95.14 C225.54 95.99 207.75 96.43 207.43 95.67 M295.41 135.79 C295.13 135.63 295 126.29 295 109.03 L295 82.50 300.04 82.50 L305.07 82.50 305.07 86.01 L305.07 89.55 305.95 88.34 C308.81 84.40 312.71 82.26 317.82 81.82 L321.16 81.58 321.16 86.61 L321.16 91.64 317.95 91.88 C316.17 92 314.12 92.37 313.36 92.69 C311.34 93.53 308.73 96.03 307.64 98.24 C305.51 102.47 305.27 104.40 305.15 120.62 L305.07 135.63 300.44 135.83 C297.86 135.91 295.61 135.91 295.41 135.79 M420.53 135.67 C420.29 135.47 420.17 126.33 420.25 109.03 L420.37 82.71 425.48 82.59 L430.63 82.46 430.43 109.03 L430.23 135.63 425.60 135.83 C423.03 135.91 420.77 135.87 420.53 135.67 M553.14 135.79 L551.74 135.55 551.86 99.45 L551.98 63.39 557.29 63.27 L562.64 63.15 562.64 94.34 L562.64 125.57 577.33 125.57 L592.02 125.57 592.02 130.52 C592.02 134.58 591.90 135.55 591.42 135.75 C590.65 136.07 555.08 136.07 553.14 135.79 M594.24 135.75 C594.11 135.59 594.03 123.56 594.03 108.99 L594.03 82.50 599.27 82.50 L604.50 82.50 604.30 109.07 L604.10 135.63 599.27 135.83 C596.61 135.91 594.32 135.91 594.24 135.75 M666.76 135.67 C663.46 134.42 660.96 132.01 659.76 128.83 C659.11 127.18 659.03 125 658.91 109.15 L658.75 91.36 654.85 91.24 L650.98 91.16 650.86 86.81 L650.74 82.50 654.77 82.50 L658.83 82.50 658.83 73.01 L658.83 63.55 663.94 63.67 L669.09 63.79 669.17 73.13 L669.29 82.50 674.33 82.50 L679.36 82.50 679.36 86.93 L679.36 91.36 674.33 91.36 L669.29 91.36 669.29 107.05 C669.29 121.87 669.33 122.87 670.06 124.32 C671.07 126.25 671.55 126.45 675.73 126.74 L679.15 126.98 679.24 130.80 C679.28 132.89 679.15 134.82 678.95 135.11 C678.43 135.71 668.13 136.19 666.76 135.67 M683.38 135.79 L682.17 135.55 682.17 109.03 L682.17 82.50 687.41 82.50 L692.64 82.50 692.44 109.07 L692.23 135.63 688.41 135.83 C686.28 135.91 684.02 135.91 683.38 135.79 M699.28 135.79 C698.71 135.59 698.67 132.25 698.67 109.03 L698.67 82.50 703.91 82.50 L709.14 82.50 709.14 85.72 L709.14 88.98 711.15 86.77 C718.76 78.44 734.33 80.25 738.76 89.95 C740.77 94.30 740.89 96.11 740.89 116.79 L740.93 136.03 736.95 136.03 C734.73 136.03 732.40 135.91 731.72 135.75 L730.47 135.51 730.35 116.35 C730.27 98.93 730.19 97.03 729.54 95.58 C727.97 92.12 725.40 90.51 721.49 90.55 C715.90 90.55 712.32 93.73 710.10 100.62 C709.50 102.51 709.34 105.16 709.06 119.21 L708.74 135.63 704.31 135.83 C701.85 135.91 699.60 135.91 699.28 135.79 M597.29 75.30 C594.03 74.33 592.18 71.64 592.50 68.22 C592.71 65.56 593.99 63.71 596.33 62.66 C602.57 59.93 608.28 67.57 604.06 72.97 C602.61 74.78 599.35 75.90 597.29 75.30 M421.42 74.09 C419.45 72.60 418.80 70.99 419 68.26 C419.33 64.51 421.78 62.22 425.40 62.22 C427.66 62.22 429.63 63.27 430.96 65.20 C431.72 66.37 431.88 66.97 431.76 69.02 C431.48 73.13 429.19 75.26 425 75.26 C423.39 75.26 422.67 74.98 421.42 74.09 M684.23 74.50 C681.41 72.60 680.32 69.42 681.53 66.57 C682.41 64.43 683.26 63.59 685.31 62.66 C690.83 60.21 696.42 66.65 693.40 71.96 C692.15 74.13 690.95 74.82 688.01 75.06 C685.88 75.22 685.15 75.10 684.23 74.50 "/>
 </g>
</svg>